<svg width="26" height="26" viewBox="0 0 26 26" fill="none" xmlns="http://www.w3.org/2000/svg">
<path d="M12.0434 1.1404C12.3312 0.195587 13.6688 0.195588 13.9566 1.1404L16.1519 8.34712C16.2801 8.76807 16.6684 9.05573 17.1085 9.05573H24.343C25.296 9.05573 25.7089 10.2624 24.9556 10.8462L18.994 15.4662C18.6659 15.7205 18.529 16.151 18.65 16.548L20.9005 23.9363C21.1847 24.8691 20.1021 25.6154 19.3314 25.0181L13.6126 20.5862C13.252 20.3067 12.748 20.3067 12.3874 20.5862L6.66865 25.0181C5.8979 25.6154 4.81535 24.8691 5.09949 23.9363L7.35004 16.548C7.47099 16.151 7.33408 15.7205 7.006 15.4662L1.04444 10.8462C0.291137 10.2624 0.703965 9.05573 1.657 9.05573H8.89154C9.33158 9.05573 9.71991 8.76807 9.84814 8.34712L12.0434 1.1404Z" fill="#FDD836"/>
</svg>
